<svg width="150" height="150" viewBox="0 0 150 150" fill="none" xmlns="http://www.w3.org/2000/svg">
<path d="M41.522 69.3681C41.522 66.7761 43.6233 64.6749 46.2153 64.6749C47.7505 64.6749 49.1136 65.4121 49.9698 66.5517C50.5592 67.3362 50.9085 68.3114 50.9085 69.3681C50.9085 69.6896 50.8762 70.0035 50.8146 70.3068C50.3798 72.449 48.4858 74.0614 46.2153 74.0614C43.9447 74.0614 42.0508 72.449 41.6159 70.3068C41.5544 70.0035 41.522 69.6896 41.522 69.3681Z" fill="#111111"/>
<path fill-rule="evenodd" clip-rule="evenodd" d="M21.8105 95.3046C24.7283 96.6907 27.8828 97.6594 31.1969 98.1334C32.7298 98.3527 34.2967 98.4661 35.8902 98.4661C37.4836 98.4661 39.0506 98.3527 40.5834 98.1334C43.8975 97.6594 47.052 96.6907 49.9698 95.3046C53.2837 93.7304 56.2921 91.6177 58.8822 89.0797C59.0418 88.9233 59.1999 88.7652 59.3563 88.6056C61.8943 86.0155 64.007 83.0071 65.5812 79.6932C66.9673 76.7754 67.936 73.6209 68.4101 70.3068C68.6293 68.774 68.7428 67.207 68.7428 65.6136C68.7428 64.0201 68.6293 62.4532 68.4101 60.9203C67.936 57.6062 66.9673 54.4517 65.5812 51.5339C64.007 48.2201 61.8943 45.2116 59.3563 42.6215C59.1999 42.4619 59.0418 42.3039 58.8822 42.1474C56.2921 39.6094 53.2837 37.4967 49.9698 35.9225C47.052 34.5364 43.8975 33.5677 40.5834 33.0937C39.0506 32.8744 37.4836 32.761 35.8902 32.761C34.2967 32.761 32.7298 32.8744 31.1969 33.0937C27.8828 33.5677 24.7283 34.5364 21.8105 35.9225C18.4967 37.4967 15.4882 39.6094 12.8981 42.1474C12.7385 42.3039 12.5805 42.4619 12.424 42.6215C9.886 45.2116 7.77333 48.2201 6.1991 51.5339C4.813 54.4517 3.84434 57.6062 3.37029 60.9203C3.15104 62.4532 3.0376 64.0201 3.0376 65.6136C3.0376 67.207 3.15104 68.774 3.3703 70.3068C3.84434 73.6209 4.813 76.7754 6.1991 79.6932C7.77333 83.0071 9.886 86.0155 12.424 88.6056C12.5805 88.7652 12.7385 88.9233 12.8981 89.0797C15.4882 91.6177 18.4967 93.7304 21.8105 95.3046ZM27.4424 69.3681C27.4424 66.3295 28.1643 63.4595 29.446 60.9203C29.9473 59.9273 30.5341 58.9848 31.1969 58.1026C33.477 55.0679 36.6553 52.7467 40.3372 51.5339C40.419 51.5069 40.5011 51.4805 40.5834 51.4547C42.3613 50.8963 44.2531 50.5952 46.2153 50.5952C47.5011 50.5952 48.7567 50.7245 49.9698 50.9708C50.6937 51.1177 51.4024 51.3063 52.0934 51.5339C54.8525 52.4428 57.3288 53.9741 59.3563 55.9616C60.8208 57.3973 62.0511 59.0711 62.9846 60.9203C64.2662 63.4595 64.9882 66.3295 64.9882 69.3681C64.9882 78.4503 58.5387 86.0261 49.9698 87.7655C48.7567 88.0118 47.5011 88.141 46.2153 88.141C44.2531 88.141 42.3613 87.84 40.5834 87.2816C36.4231 85.9749 32.8869 83.259 30.5343 79.6932C28.5799 76.7311 27.4424 73.1824 27.4424 69.3681Z" fill="#111111"/>
<path d="M3.0376 70.3068V94.7106C3.0376 107.153 13.1239 117.239 25.566 117.239V117.239C26.0839 117.239 26.5037 116.819 26.5037 116.301V98.4661H31.1969H35.8902C34.2967 98.4661 32.7298 98.3527 31.1969 98.1334C27.8828 97.6594 24.7283 96.6907 21.8105 95.3046C18.4967 93.7304 15.4882 91.6177 12.8981 89.0797C12.7385 88.9233 12.5805 88.7652 12.424 88.6056C9.886 86.0155 7.77333 83.0071 6.1991 79.6932C4.813 76.7754 3.84434 73.6209 3.3703 70.3068C3.15104 68.774 3.0376 67.207 3.0376 65.6136V70.3068Z" fill="#111111"/>
<path d="M132.884 117.239C131.238 117.239 129.659 116.964 128.191 116.458C124.58 115.213 121.646 112.573 120.069 109.202L119.47 108.084L117.583 104.421C117.226 103.727 117.729 102.901 118.51 102.901L131.513 102.901C132.051 102.901 132.338 102.266 131.983 101.862L117.246 85.0967L125.253 85.0964C125.791 85.0963 126.078 84.4618 125.723 84.0575L110.986 67.2926L118.993 67.2922C119.531 67.2922 119.818 66.6576 119.463 66.2533L104.726 49.4884L89.989 66.2533C89.6336 66.6576 89.9207 67.2922 90.459 67.2922L98.4658 67.2926L83.729 84.0575C83.3736 84.4618 83.6607 85.0963 84.199 85.0964L92.2058 85.0967L77.4691 101.862C77.1137 102.266 77.4008 102.901 77.939 102.901L90.9413 102.901C91.7221 102.901 92.226 103.727 91.8684 104.421L89.9813 108.084L89.4335 109.092C89.3354 109.273 89.2402 109.456 89.1448 109.64C88.9328 110.05 88.7197 110.461 88.4703 110.845C86.7946 113.425 84.2611 115.423 81.2608 116.458C79.7929 116.964 78.2133 117.239 76.5678 117.239C74.9222 117.239 73.3426 116.964 71.8748 116.458C67.8744 115.079 64.7038 111.986 63.2899 108.084C62.7711 106.653 62.4888 105.112 62.4888 103.507C62.4888 101.683 62.8533 99.9424 63.5152 98.3502L92.0295 42.6369L92.2162 42.2723C93.8506 39.1944 96.6439 36.7966 100.033 35.6283C101.499 35.1228 103.077 34.8475 104.721 34.8469H104.731C106.375 34.8475 107.952 35.1228 109.419 35.6283C112.927 36.8376 115.797 39.3645 117.403 42.5994L118.148 44.0016L141.618 89.775C141.618 89.775 145.643 97.498 146.162 98.9297C146.681 100.361 146.963 101.902 146.963 103.507C146.963 105.112 146.681 106.653 146.162 108.084C144.748 111.986 141.577 115.079 137.577 116.458C136.109 116.964 134.529 117.239 132.884 117.239Z" fill="#111111"/>
</svg>
